<svg xmlns="http://www.w3.org/2000/svg" xmlns:xlink="http://www.w3.org/1999/xlink" width="250" zoomAndPan="magnify" viewBox="0 0 187.5 74.999997" height="100" preserveAspectRatio="xMidYMid meet" version="1.0"><defs><g/><clipPath id="a955877720"><path d="M 0 3.902344 L 186.859375 3.902344 L 186.859375 64.3125 L 0 64.3125 Z M 0 3.902344 " clip-rule="nonzero"/></clipPath><clipPath id="0d9625b6ef"><path d="M 118 0.101562 L 186 0.101562 L 186 70 L 118 70 Z M 118 0.101562 " clip-rule="nonzero"/></clipPath><clipPath id="2bc90df641"><path d="M 100 0.101562 L 167 0.101562 L 167 70 L 100 70 Z M 100 0.101562 " clip-rule="nonzero"/></clipPath><clipPath id="9034014c3e"><path d="M 82 0.101562 L 149 0.101562 L 149 70 L 82 70 Z M 82 0.101562 " clip-rule="nonzero"/></clipPath><clipPath id="caaef82860"><path d="M 70 0.101562 L 125 0.101562 L 125 70 L 70 70 Z M 70 0.101562 " clip-rule="nonzero"/></clipPath><clipPath id="d6324a2e43"><path d="M 95.777344 19.839844 L 107.527344 19.839844 L 107.527344 49.625 L 95.777344 49.625 Z M 95.777344 19.839844 " clip-rule="nonzero"/></clipPath><clipPath id="80632ba419"><path d="M 96 19 L 112 19 L 112 51 L 96 51 Z M 96 19 " clip-rule="nonzero"/></clipPath><clipPath id="06bb6edd9b"><path d="M 89.828125 23.675781 L 110.292969 16.0625 L 120.207031 42.714844 L 99.742188 50.328125 Z M 89.828125 23.675781 " clip-rule="nonzero"/></clipPath><clipPath id="19631b3a47"><path d="M 89.828125 23.675781 L 110.292969 16.0625 L 120.207031 42.714844 L 99.742188 50.328125 Z M 89.828125 23.675781 " clip-rule="nonzero"/></clipPath><clipPath id="e76a47c491"><path d="M 49 0.101562 L 117 0.101562 L 117 70 L 49 70 Z M 49 0.101562 " clip-rule="nonzero"/></clipPath><clipPath id="8727e0f9e2"><path d="M 24 0.101562 L 92 0.101562 L 92 70 L 24 70 Z M 24 0.101562 " clip-rule="nonzero"/></clipPath><clipPath id="7c03a34664"><path d="M 0 0.101562 L 68 0.101562 L 68 70 L 0 70 Z M 0 0.101562 " clip-rule="nonzero"/></clipPath></defs><g clip-path="url(#a955877720)"><path stroke-linecap="butt" transform="matrix(0.507793, 0, 0, 0.507793, 0.0000738552, 3.900468)" fill="none" stroke-linejoin="miter" d="M -0.000145443 0.0036932 L 367.98306 0.0036932 L 367.98306 118.969749 L -0.000145443 118.969749 Z M -0.000145443 0.0036932 " stroke="#ffffff" stroke-width="11.784407" stroke-opacity="1" stroke-miterlimit="4"/></g><g clip-path="url(#0d9625b6ef)"><path stroke-linecap="butt" transform="matrix(0.365929, 0, 0, 0.365929, 137.303865, 12.968807)" fill="none" stroke-linejoin="miter" d="M 75.249589 78.567078 C 75.249589 79.687942 75.249589 80.915555 75.249589 82.260592 C 75.249589 83.584279 75.249589 84.715818 75.249589 85.665884 C 75.249589 86.359752 75.270939 87.395217 75.313639 88.782953 C 75.356338 90.14934 75.420388 91.63315 75.505787 93.22371 C 75.591186 94.824944 75.655235 96.180656 75.697935 97.290845 C 75.740635 98.401034 75.761984 98.956129 75.761984 98.956129 C 75.761984 99.649997 75.420388 100.002269 74.747869 100.002269 L 4.9127 100.002269 C 3.695762 100.002269 3.129992 99.404475 3.215391 98.208886 C 3.482264 91.729224 3.642387 85.249563 3.685087 78.759226 C 3.727786 72.268889 3.791836 65.757203 3.877235 59.224166 C 3.962634 52.851253 4.186807 46.446316 4.571103 39.998679 C 4.966074 33.529692 4.699202 27.114079 3.749136 20.741166 C 3.663737 20.218096 3.791836 19.769751 4.133432 19.385454 C 4.464354 19.011833 4.89135 18.819685 5.425095 18.819685 L 74.214124 18.819685 C 74.737194 18.819685 75.089466 19.075882 75.249589 19.577603 C 75.249589 19.663002 75.238914 20.047298 75.196215 20.741166 C 75.153515 21.435034 75.089466 22.128903 75.004067 22.822771 C 75.004067 23.239092 74.961367 24.231857 74.875968 25.790392 C 74.790569 27.338252 74.715845 28.960836 74.651795 30.636795 C 74.609096 32.302079 74.587746 33.561716 74.587746 34.415708 C 74.587746 35.280375 74.630445 36.337189 74.715845 37.607502 C 74.822593 38.84579 74.940017 39.955979 75.068116 40.938069 C 75.196215 41.930835 75.249589 42.42188 75.249589 42.42188 C 75.249589 43.115748 74.865293 43.46802 74.086026 43.46802 C 74.086026 43.46802 73.253384 43.44667 71.56675 43.40397 C 69.890792 43.361271 67.755812 43.339921 65.172488 43.339921 C 62.610512 43.339921 59.877739 43.339921 56.974167 43.339921 C 54.10262 43.339921 51.433896 43.382621 48.967995 43.46802 C 46.534119 43.553419 44.623313 43.670843 43.235576 43.841641 C 41.954589 44.012439 40.641577 44.396736 39.29654 45.005205 C 37.972853 45.613674 37.22561 46.702513 37.054812 48.250373 C 36.958737 49.200439 37.24696 50.001056 37.940828 50.652225 C 38.634696 51.282044 39.371264 51.762414 40.150531 52.104011 C 40.566852 52.178735 41.911889 52.274809 44.185642 52.381558 C 46.47007 52.466957 49.213518 52.509657 52.405312 52.509657 C 55.597106 52.509657 58.799575 52.488307 62.023393 52.445607 C 65.257887 52.402908 67.99066 52.381558 70.211038 52.381558 C 72.463441 52.381558 73.755104 52.381558 74.086026 52.381558 C 74.865293 52.381558 75.249589 52.723155 75.249589 53.395673 L 75.249589 64.102594 C 75.249589 65.052659 75.249589 65.874626 75.249589 66.568495 C 75.249589 67.262363 75.249589 67.988256 75.249589 68.767523 C 75.249589 69.461391 74.865293 69.813663 74.086026 69.813663 C 72.61289 69.813663 70.573985 69.792313 67.94796 69.749614 C 65.343286 69.685564 62.631862 69.61084 59.81369 69.525441 C 57.016867 69.440042 54.497592 69.375992 52.245189 69.333293 C 50.02481 69.290593 48.530325 69.269243 47.772407 69.269243 C 46.918415 69.354642 45.850926 69.397342 44.591288 69.397342 C 43.353 69.397342 42.168087 69.578815 41.025873 69.931087 C 39.915684 70.272684 39.104392 70.955877 38.602671 71.980667 C 37.738005 73.624601 37.866104 74.980313 38.986968 76.047802 C 40.097157 77.125967 41.34612 77.83051 42.733856 78.193456 C 43.598523 78.364255 45.359881 78.449654 48.028605 78.449654 C 50.697329 78.449654 53.718324 78.385604 57.102266 78.257506 C 60.507558 78.129407 63.774076 78.001308 66.901821 77.873209 C 70.050915 77.734436 72.452767 77.617012 74.086026 77.531613 C 74.865293 77.531613 75.249589 77.873209 75.249589 78.567078 Z M 75.249589 78.567078 " stroke="#000000" stroke-width="9.681525" stroke-opacity="1" stroke-miterlimit="4"/></g><g fill="#ffffff" fill-opacity="1"><g transform="translate(137.303865, 49.56167)"><g><path d="M 27.53125 -7.84375 C 27.53125 -7.4375 27.53125 -6.988281 27.53125 -6.5 C 27.53125 -6.007812 27.53125 -5.59375 27.53125 -5.25 C 27.53125 -4.988281 27.535156 -4.609375 27.546875 -4.109375 C 27.566406 -3.609375 27.59375 -3.066406 27.625 -2.484375 C 27.65625 -1.898438 27.675781 -1.398438 27.6875 -0.984375 C 27.707031 -0.578125 27.71875 -0.375 27.71875 -0.375 C 27.71875 -0.125 27.59375 0 27.34375 0 L 1.796875 0 C 1.359375 0 1.15625 -0.21875 1.1875 -0.65625 C 1.28125 -3.019531 1.332031 -5.390625 1.34375 -7.765625 C 1.363281 -10.148438 1.390625 -12.535156 1.421875 -14.921875 C 1.453125 -17.253906 1.535156 -19.597656 1.671875 -21.953125 C 1.816406 -24.316406 1.71875 -26.664062 1.375 -29 C 1.34375 -29.1875 1.390625 -29.347656 1.515625 -29.484375 C 1.640625 -29.628906 1.796875 -29.703125 1.984375 -29.703125 L 27.15625 -29.703125 C 27.34375 -29.703125 27.46875 -29.609375 27.53125 -29.421875 C 27.53125 -29.390625 27.519531 -29.25 27.5 -29 C 27.488281 -28.75 27.46875 -28.5 27.4375 -28.25 C 27.4375 -28.09375 27.421875 -27.726562 27.390625 -27.15625 C 27.359375 -26.59375 27.332031 -26.003906 27.3125 -25.390625 C 27.300781 -24.773438 27.296875 -24.3125 27.296875 -24 C 27.296875 -23.675781 27.3125 -23.285156 27.34375 -22.828125 C 27.375 -22.378906 27.410156 -21.972656 27.453125 -21.609375 C 27.503906 -21.242188 27.53125 -21.0625 27.53125 -21.0625 C 27.53125 -20.8125 27.390625 -20.6875 27.109375 -20.6875 C 27.109375 -20.6875 26.800781 -20.691406 26.1875 -20.703125 C 25.570312 -20.722656 24.789062 -20.734375 23.84375 -20.734375 C 22.90625 -20.734375 21.90625 -20.734375 20.84375 -20.734375 C 19.789062 -20.734375 18.816406 -20.71875 17.921875 -20.6875 C 17.023438 -20.65625 16.328125 -20.609375 15.828125 -20.546875 C 15.347656 -20.484375 14.863281 -20.34375 14.375 -20.125 C 13.894531 -19.90625 13.625 -19.507812 13.5625 -18.9375 C 13.53125 -18.59375 13.640625 -18.300781 13.890625 -18.0625 C 14.140625 -17.832031 14.40625 -17.65625 14.6875 -17.53125 C 14.84375 -17.5 15.335938 -17.460938 16.171875 -17.421875 C 17.003906 -17.390625 18.003906 -17.375 19.171875 -17.375 C 20.335938 -17.375 21.507812 -17.378906 22.6875 -17.390625 C 23.875 -17.410156 24.875 -17.421875 25.6875 -17.421875 C 26.507812 -17.421875 26.984375 -17.421875 27.109375 -17.421875 C 27.390625 -17.421875 27.53125 -17.296875 27.53125 -17.046875 L 27.53125 -13.125 C 27.53125 -12.78125 27.53125 -12.484375 27.53125 -12.234375 C 27.53125 -11.984375 27.53125 -11.71875 27.53125 -11.4375 C 27.53125 -11.175781 27.390625 -11.046875 27.109375 -11.046875 C 26.578125 -11.046875 25.828125 -11.050781 24.859375 -11.0625 C 23.898438 -11.082031 22.910156 -11.109375 21.890625 -11.140625 C 20.867188 -11.171875 19.945312 -11.191406 19.125 -11.203125 C 18.3125 -11.222656 17.765625 -11.234375 17.484375 -11.234375 C 17.160156 -11.203125 16.769531 -11.1875 16.3125 -11.1875 C 15.863281 -11.1875 15.429688 -11.125 15.015625 -11 C 14.609375 -10.875 14.3125 -10.625 14.125 -10.25 C 13.8125 -9.65625 13.859375 -9.160156 14.265625 -8.765625 C 14.671875 -8.367188 15.128906 -8.109375 15.640625 -7.984375 C 15.953125 -7.921875 16.59375 -7.890625 17.5625 -7.890625 C 18.539062 -7.890625 19.648438 -7.910156 20.890625 -7.953125 C 22.140625 -8.003906 23.335938 -8.050781 24.484375 -8.09375 C 25.640625 -8.144531 26.515625 -8.1875 27.109375 -8.21875 C 27.390625 -8.21875 27.53125 -8.09375 27.53125 -7.84375 Z M 27.53125 -7.84375 "/></g></g></g><g clip-path="url(#2bc90df641)"><path stroke-linecap="butt" transform="matrix(0.365929, 0, 0, 0.365929, 119.110514, 12.968807)" fill="none" stroke-linejoin="miter" d="M 74.881282 18.819685 C 74.956006 18.905084 75.041406 19.033183 75.126805 19.203981 C 75.297603 20.922639 75.361652 22.36375 75.318953 23.516639 C 75.276253 24.669528 75.212204 25.96119 75.126805 27.391626 C 75.041406 28.822062 74.998706 30.957042 74.998706 33.785889 C 74.998706 34.821354 75.084105 36.326514 75.254903 38.30137 C 75.425702 40.276226 75.553801 41.770711 75.628525 42.806176 C 75.628525 43.574769 75.244229 43.96974 74.464961 43.96974 C 71.550715 43.884341 68.198797 43.734892 64.409209 43.532069 C 60.630296 43.318571 57.086231 43.126423 53.766338 42.955625 C 50.446445 42.774152 48.055269 42.678077 46.603483 42.678077 C 43.411689 42.763477 40.636216 43.019674 38.255714 43.46802 C 35.907237 43.884341 34.732998 44.877106 34.732998 46.424966 C 34.732998 48.0689 35.181344 49.061665 36.078035 49.424612 C 36.985401 49.755533 37.786019 49.969031 38.479887 50.054431 C 40.785664 50.470752 42.717821 50.6202 44.276355 50.492101 C 45.83489 50.364003 47.980544 50.385352 50.734667 50.556151 C 53.57419 50.726949 56.371012 51.111245 59.114461 51.719714 C 61.868584 52.328183 64.32381 53.534447 66.458789 55.349179 C 67.675727 56.373969 68.98874 57.686981 70.397826 59.288216 C 71.828262 60.857425 73.034525 63.163203 74.02729 66.184198 C 75.009381 69.194519 75.511101 73.443128 75.511101 78.951374 C 75.511101 80.168312 75.222879 81.940345 74.657109 84.278147 C 74.11269 86.583925 73.013175 88.996451 71.379916 91.494377 C 70.600649 92.604566 69.351686 93.832179 67.633028 95.177216 C 65.903695 96.500903 63.971538 97.515018 61.825884 98.208886 C 58.997037 99.062878 56.14684 99.532573 53.285968 99.617973 C 50.45712 99.703372 48.396865 99.746071 47.115878 99.746071 C 46.774281 99.746071 45.503968 99.767421 43.30494 99.810121 C 41.116586 99.85282 38.405163 99.87417 35.170669 99.87417 C 31.957525 99.87417 28.584258 99.89552 25.050868 99.938219 C 21.528152 99.980919 18.18691 100.002269 15.02714 100.002269 C 11.899396 100.002269 9.358771 100.002269 7.405265 100.002269 C 5.473108 100.002269 4.501693 100.002269 4.501693 100.002269 C 3.7331 100.002269 3.338129 99.649997 3.338129 98.956129 C 3.338129 97.931339 3.359479 96.895874 3.402179 95.871084 C 3.466228 94.846294 3.540952 93.810829 3.626351 92.786039 C 3.79715 90.202714 3.850524 87.59804 3.807825 84.972015 C 3.7758 82.345991 3.75445 79.741316 3.75445 77.147317 C 3.75445 76.378724 4.138746 76.026452 4.918014 76.111852 C 5.857405 76.197251 6.999619 76.23995 8.323306 76.23995 C 9.668343 76.23995 10.895956 76.2613 12.006145 76.304 C 13.116334 76.346699 13.852902 76.368049 14.215848 76.368049 C 15.496836 76.474798 17.247519 76.538847 19.478572 76.581547 C 21.7203 76.624247 24.100802 76.602897 26.598728 76.517498 C 29.096653 76.421424 31.44513 76.28265 33.622809 76.111852 C 35.811163 75.941053 37.508471 75.695531 38.725409 75.353934 C 40.540142 74.916263 41.479533 73.795399 41.564932 71.980667 C 41.650331 70.955877 41.159286 70.251334 40.081121 69.877712 C 39.013632 69.472066 37.700619 69.269243 36.142085 69.269243 C 34.594225 69.269243 33.03569 69.333293 31.477155 69.461391 C 29.950645 69.58949 28.755057 69.65354 27.89039 69.65354 C 25.136267 69.845688 22.446193 69.749614 19.820169 69.365317 C 17.194144 68.970346 14.717568 67.988256 12.379766 66.440396 C 10.661108 65.319532 9.123923 63.889096 7.778886 62.117063 C 6.455199 60.355705 5.462434 58.530298 4.789915 56.640841 C 3.31678 52.755179 2.77236 48.709394 3.156656 44.503485 C 3.551627 40.286901 4.608442 36.283815 6.337775 32.494227 C 7.362565 30.252499 8.643553 28.224268 10.180738 26.420211 C 11.728598 24.605479 13.596704 23.185717 15.753033 22.160927 C 17.567766 21.296261 19.435872 20.538343 21.368029 19.865825 C 23.300185 19.171957 25.253691 18.819685 27.228546 18.819685 Z M 74.881282 18.819685 " stroke="#000000" stroke-width="9.681525" stroke-opacity="1" stroke-miterlimit="4"/></g><g fill="#ffffff" fill-opacity="1"><g transform="translate(119.110514, 49.56167)"><g><path d="M 27.390625 -29.703125 C 27.421875 -29.671875 27.453125 -29.625 27.484375 -29.5625 C 27.546875 -28.9375 27.566406 -28.410156 27.546875 -27.984375 C 27.535156 -27.554688 27.515625 -27.082031 27.484375 -26.5625 C 27.453125 -26.050781 27.4375 -25.273438 27.4375 -24.234375 C 27.4375 -23.859375 27.46875 -23.304688 27.53125 -22.578125 C 27.59375 -21.847656 27.640625 -21.296875 27.671875 -20.921875 C 27.671875 -20.640625 27.53125 -20.5 27.25 -20.5 C 26.175781 -20.53125 24.945312 -20.582031 23.5625 -20.65625 C 22.175781 -20.738281 20.878906 -20.8125 19.671875 -20.875 C 18.460938 -20.9375 17.585938 -20.96875 17.046875 -20.96875 C 15.878906 -20.9375 14.863281 -20.84375 14 -20.6875 C 13.132812 -20.53125 12.703125 -20.171875 12.703125 -19.609375 C 12.703125 -19.003906 12.867188 -18.640625 13.203125 -18.515625 C 13.535156 -18.390625 13.828125 -18.3125 14.078125 -18.28125 C 14.921875 -18.125 15.625 -18.066406 16.1875 -18.109375 C 16.757812 -18.160156 17.550781 -18.15625 18.5625 -18.09375 C 19.601562 -18.03125 20.625 -17.882812 21.625 -17.65625 C 22.632812 -17.4375 23.535156 -17 24.328125 -16.34375 C 24.765625 -15.96875 25.242188 -15.488281 25.765625 -14.90625 C 26.285156 -14.320312 26.722656 -13.476562 27.078125 -12.375 C 27.441406 -11.269531 27.625 -9.710938 27.625 -7.703125 C 27.625 -7.253906 27.519531 -6.601562 27.3125 -5.75 C 27.113281 -4.90625 26.71875 -4.03125 26.125 -3.125 C 25.84375 -2.707031 25.382812 -2.253906 24.75 -1.765625 C 24.125 -1.285156 23.414062 -0.914062 22.625 -0.65625 C 21.582031 -0.34375 20.539062 -0.171875 19.5 -0.140625 C 18.46875 -0.109375 17.710938 -0.09375 17.234375 -0.09375 C 17.109375 -0.09375 16.644531 -0.0820312 15.84375 -0.0625 C 15.039062 -0.0507812 14.046875 -0.046875 12.859375 -0.046875 C 11.679688 -0.046875 10.445312 -0.0351562 9.15625 -0.015625 C 7.875 -0.00390625 6.65625 0 5.5 0 C 4.351562 0 3.425781 0 2.71875 0 C 2.007812 0 1.65625 0 1.65625 0 C 1.375 0 1.234375 -0.125 1.234375 -0.375 C 1.234375 -0.75 1.238281 -1.125 1.25 -1.5 C 1.269531 -1.882812 1.296875 -2.265625 1.328125 -2.640625 C 1.390625 -3.585938 1.410156 -4.539062 1.390625 -5.5 C 1.378906 -6.457031 1.375 -7.410156 1.375 -8.359375 C 1.375 -8.640625 1.515625 -8.765625 1.796875 -8.734375 C 2.140625 -8.703125 2.554688 -8.6875 3.046875 -8.6875 C 3.535156 -8.6875 3.984375 -8.675781 4.390625 -8.65625 C 4.796875 -8.644531 5.066406 -8.640625 5.203125 -8.640625 C 5.671875 -8.609375 6.3125 -8.582031 7.125 -8.5625 C 7.945312 -8.550781 8.8125 -8.5625 9.71875 -8.59375 C 10.632812 -8.625 11.492188 -8.671875 12.296875 -8.734375 C 13.109375 -8.796875 13.734375 -8.890625 14.171875 -9.015625 C 14.828125 -9.179688 15.171875 -9.59375 15.203125 -10.25 C 15.234375 -10.625 15.050781 -10.878906 14.65625 -11.015625 C 14.269531 -11.160156 13.789062 -11.234375 13.21875 -11.234375 C 12.65625 -11.234375 12.085938 -11.207031 11.515625 -11.15625 C 10.953125 -11.113281 10.515625 -11.09375 10.203125 -11.09375 C 9.191406 -11.03125 8.207031 -11.070312 7.25 -11.21875 C 6.289062 -11.363281 5.382812 -11.71875 4.53125 -12.28125 C 3.90625 -12.6875 3.347656 -13.210938 2.859375 -13.859375 C 2.367188 -14.503906 2 -15.175781 1.75 -15.875 C 1.207031 -17.289062 1.007812 -18.769531 1.15625 -20.3125 C 1.300781 -21.851562 1.6875 -23.316406 2.3125 -24.703125 C 2.6875 -25.523438 3.15625 -26.265625 3.71875 -26.921875 C 4.289062 -27.585938 4.972656 -28.109375 5.765625 -28.484375 C 6.421875 -28.796875 7.101562 -29.078125 7.8125 -29.328125 C 8.519531 -29.578125 9.238281 -29.703125 9.96875 -29.703125 Z M 27.390625 -29.703125 "/></g></g></g><g clip-path="url(#9034014c3e)"><path stroke-linecap="butt" transform="matrix(0.365929, 0, 0, 0.365929, 100.917178, 12.968807)" fill="none" stroke-linejoin="miter" d="M 76.295643 42.549979 C 76.381042 43.500044 76.402392 45.090604 76.359693 47.343007 C 76.316993 49.563385 76.220919 51.805114 76.07147 54.057517 C 75.943372 56.277895 75.761898 57.868454 75.505701 58.807845 C 75.08938 61.060248 74.374162 63.430075 73.360047 65.938676 C 72.377956 68.415252 70.766047 70.817103 68.545669 73.154905 C 66.400015 75.396634 64.510558 77.019218 62.866624 78.001308 C 61.233365 78.994074 59.856303 79.784016 58.746114 80.371135 C 57.358378 81.139728 55.394197 81.812246 52.853572 82.38869 C 50.302272 82.95446 47.847045 83.381456 45.477219 83.680353 C 43.118067 83.968575 41.474133 84.118024 40.524067 84.118024 C 38.549211 84.118024 37.278898 84.48097 36.713129 85.217538 C 36.168709 85.954106 35.795088 87.224418 35.613615 89.028476 C 35.442816 90.14934 35.357417 91.63315 35.357417 93.479907 C 35.357417 95.326664 35.357417 96.981273 35.357417 98.454409 C 35.357417 99.489874 34.973121 100.002269 34.193854 100.002269 L 4.635067 100.002269 C 3.7704 100.002269 3.343404 99.489874 3.343404 98.454409 C 3.343404 98.454409 3.364754 97.429619 3.407454 95.369364 C 3.471503 93.287759 3.535552 90.747134 3.620951 87.736813 C 3.706351 84.737168 3.7704 81.769546 3.8131 78.8553 C 3.855799 75.909029 3.877149 73.496502 3.877149 71.607046 C 3.962548 64.380141 3.941198 57.131887 3.8131 49.862282 C 3.685001 42.592678 3.620951 35.291049 3.620951 27.957396 C 3.535552 25.128548 3.492853 22.289026 3.492853 19.449504 C 3.492853 19.033183 3.74905 18.819685 4.25077 18.819685 L 54.081185 18.819685 C 55.629045 18.819685 57.497151 19.107907 59.685505 19.673677 C 61.895209 20.218096 64.457184 21.605833 67.37143 23.826211 C 69.346286 25.384746 70.936845 27.284877 72.132434 29.537281 C 73.349372 31.757659 74.278088 34.042087 74.907907 36.369214 C 75.559075 38.685666 76.018096 40.745921 76.295643 42.549979 Z M 43.769235 43.46802 C 43.769235 42.859551 43.715861 42.080283 43.619787 41.130218 C 43.534387 40.190827 43.224816 39.358185 42.701746 38.642967 C 42.200025 37.906399 41.346034 37.543452 40.150445 37.543452 C 38.954857 37.543452 38.068841 37.927749 37.503071 38.707016 C 36.937302 39.464934 36.58503 40.286901 36.456931 41.194267 C 36.339508 42.101633 36.275458 42.816851 36.275458 43.339921 C 36.190059 44.119188 36.12601 45.389501 36.08331 47.150859 C 36.040611 48.912217 35.997911 50.684249 35.955211 52.445607 C 35.912512 54.206965 35.933862 55.423903 36.019261 56.096422 C 36.019261 56.715566 36.08331 57.505508 36.211409 58.498273 C 36.339508 59.480364 36.64908 60.38773 37.1508 61.209697 C 37.684545 62.020989 38.591911 62.43731 39.894248 62.43731 C 41.698305 62.43731 42.77647 61.796816 43.107392 60.515829 C 43.448988 59.213491 43.662486 58.167352 43.769235 57.398759 C 43.769235 56.534092 43.790585 55.114331 43.833285 53.139476 C 43.875984 51.16462 43.897334 49.232464 43.897334 47.343007 C 43.897334 45.45355 43.854634 44.161888 43.769235 43.46802 Z M 43.769235 43.46802 " stroke="#000000" stroke-width="9.681525" stroke-opacity="1" stroke-miterlimit="4"/></g><g fill="#ffffff" fill-opacity="1"><g transform="translate(100.917178, 49.56167)"><g><path d="M 27.921875 -21.015625 C 27.953125 -20.671875 27.957031 -20.085938 27.9375 -19.265625 C 27.925781 -18.453125 27.894531 -17.632812 27.84375 -16.8125 C 27.800781 -16 27.726562 -15.414062 27.625 -15.0625 C 27.46875 -14.25 27.207031 -13.382812 26.84375 -12.46875 C 26.488281 -11.550781 25.898438 -10.671875 25.078125 -9.828125 C 24.296875 -9.003906 23.601562 -8.410156 23 -8.046875 C 22.40625 -7.691406 21.898438 -7.398438 21.484375 -7.171875 C 20.984375 -6.890625 20.269531 -6.644531 19.34375 -6.4375 C 18.414062 -6.238281 17.515625 -6.082031 16.640625 -5.96875 C 15.773438 -5.863281 15.171875 -5.8125 14.828125 -5.8125 C 14.109375 -5.8125 13.644531 -5.675781 13.4375 -5.40625 C 13.226562 -5.132812 13.09375 -4.671875 13.03125 -4.015625 C 12.96875 -3.609375 12.9375 -3.066406 12.9375 -2.390625 C 12.9375 -1.710938 12.9375 -1.101562 12.9375 -0.5625 C 12.9375 -0.1875 12.796875 0 12.515625 0 L 1.703125 0 C 1.390625 0 1.234375 -0.1875 1.234375 -0.5625 C 1.234375 -0.5625 1.238281 -0.9375 1.25 -1.6875 C 1.269531 -2.445312 1.296875 -3.378906 1.328125 -4.484375 C 1.359375 -5.585938 1.378906 -6.675781 1.390625 -7.75 C 1.410156 -8.820312 1.421875 -9.703125 1.421875 -10.390625 C 1.453125 -13.035156 1.441406 -15.6875 1.390625 -18.34375 C 1.347656 -21.007812 1.328125 -23.679688 1.328125 -26.359375 C 1.296875 -27.398438 1.28125 -28.4375 1.28125 -29.46875 C 1.28125 -29.625 1.375 -29.703125 1.5625 -29.703125 L 19.796875 -29.703125 C 20.359375 -29.703125 21.039062 -29.597656 21.84375 -29.390625 C 22.644531 -29.191406 23.582031 -28.6875 24.65625 -27.875 C 25.382812 -27.300781 25.96875 -26.601562 26.40625 -25.78125 C 26.84375 -24.96875 27.179688 -24.132812 27.421875 -23.28125 C 27.660156 -22.4375 27.828125 -21.679688 27.921875 -21.015625 Z M 16.015625 -20.6875 C 16.015625 -20.90625 16 -21.1875 15.96875 -21.53125 C 15.9375 -21.882812 15.820312 -22.191406 15.625 -22.453125 C 15.4375 -22.722656 15.125 -22.859375 14.6875 -22.859375 C 14.25 -22.859375 13.925781 -22.71875 13.71875 -22.4375 C 13.519531 -22.15625 13.394531 -21.847656 13.34375 -21.515625 C 13.289062 -21.179688 13.265625 -20.921875 13.265625 -20.734375 C 13.234375 -20.453125 13.207031 -19.988281 13.1875 -19.34375 C 13.175781 -18.695312 13.160156 -18.050781 13.140625 -17.40625 C 13.128906 -16.757812 13.140625 -16.3125 13.171875 -16.0625 C 13.171875 -15.84375 13.191406 -15.550781 13.234375 -15.1875 C 13.285156 -14.820312 13.40625 -14.488281 13.59375 -14.1875 C 13.789062 -13.894531 14.125 -13.75 14.59375 -13.75 C 15.257812 -13.75 15.65625 -13.984375 15.78125 -14.453125 C 15.90625 -14.921875 15.984375 -15.300781 16.015625 -15.59375 C 16.015625 -15.90625 16.019531 -16.421875 16.03125 -17.140625 C 16.050781 -17.867188 16.0625 -18.578125 16.0625 -19.265625 C 16.0625 -19.960938 16.046875 -20.4375 16.015625 -20.6875 Z M 16.015625 -20.6875 "/></g></g></g><g clip-path="url(#caaef82860)"><path stroke-linecap="butt" transform="matrix(0.365929, 0, 0, 0.365929, 89.399744, 12.968807)" fill="none" stroke-linejoin="miter" d="M 3.871416 18.819685 L 39.610968 18.819685 C 40.582384 18.819685 41.062754 19.33208 41.062754 20.367545 C 40.785207 22.865471 40.635758 26.313462 40.593059 30.700844 C 40.550359 35.066877 40.529009 39.817205 40.529009 44.941155 C 40.529009 50.07578 40.571709 55.071632 40.657108 59.950059 C 40.731832 64.796462 40.795882 69.077095 40.838581 72.770609 C 40.881281 76.474798 40.956005 79.058123 41.062754 80.520584 C 41.062754 83.530904 41.148153 86.5092 41.318952 89.476821 C 41.479075 92.433768 41.692573 95.433413 41.94877 98.454409 C 42.023495 99.489874 41.553799 100.002269 40.529009 100.002269 L 3.999515 100.002269 C 3.668593 100.002269 3.540495 99.788771 3.625894 99.37245 C 3.796692 98.230236 3.914116 96.169981 3.999515 93.15966 C 4.084914 90.160015 4.127614 86.786748 4.127614 83.050534 C 4.127614 79.282296 4.106264 75.75958 4.063565 72.461037 C 4.020865 69.141145 3.956816 66.611194 3.871416 64.892536 C 3.871416 62.832281 3.850067 60.120857 3.818042 56.758265 C 3.775342 53.406348 3.732643 49.787558 3.689943 45.923246 C 3.647244 42.037584 3.604544 38.269345 3.561844 34.607856 C 3.519145 30.957042 3.46577 27.754573 3.401721 25.00045 C 3.359021 22.246327 3.337672 20.35687 3.337672 19.321405 C 3.444421 19.236006 3.625894 19.075882 3.871416 18.819685 Z M 3.871416 18.819685 " stroke="#000000" stroke-width="9.681525" stroke-opacity="1" stroke-miterlimit="4"/></g><g fill="#ffffff" fill-opacity="1"><g transform="translate(89.399744, 49.56167)"><g><path d="M 1.421875 -29.703125 L 14.5 -29.703125 C 14.84375 -29.703125 15.015625 -29.515625 15.015625 -29.140625 C 14.921875 -28.234375 14.863281 -26.972656 14.84375 -25.359375 C 14.832031 -23.753906 14.828125 -22.015625 14.828125 -20.140625 C 14.828125 -18.265625 14.84375 -16.4375 14.875 -14.65625 C 14.90625 -12.882812 14.925781 -11.320312 14.9375 -9.96875 C 14.957031 -8.613281 14.984375 -7.664062 15.015625 -7.125 C 15.015625 -6.03125 15.046875 -4.9375 15.109375 -3.84375 C 15.171875 -2.757812 15.25 -1.664062 15.34375 -0.5625 C 15.375 -0.1875 15.203125 0 14.828125 0 L 1.46875 0 C 1.34375 0 1.296875 -0.078125 1.328125 -0.234375 C 1.390625 -0.640625 1.4375 -1.394531 1.46875 -2.5 C 1.5 -3.601562 1.515625 -4.835938 1.515625 -6.203125 C 1.515625 -7.578125 1.503906 -8.867188 1.484375 -10.078125 C 1.472656 -11.296875 1.453125 -12.21875 1.421875 -12.84375 C 1.421875 -13.601562 1.410156 -14.597656 1.390625 -15.828125 C 1.378906 -17.054688 1.363281 -18.378906 1.34375 -19.796875 C 1.332031 -21.210938 1.316406 -22.585938 1.296875 -23.921875 C 1.285156 -25.265625 1.269531 -26.4375 1.25 -27.4375 C 1.238281 -28.445312 1.234375 -29.140625 1.234375 -29.515625 C 1.265625 -29.546875 1.328125 -29.609375 1.421875 -29.703125 Z M 1.421875 -29.703125 "/></g></g></g><g clip-path="url(#d6324a2e43)"><path fill="#ffffff" d="M 95.777344 19.839844 L 107.527344 19.839844 L 107.527344 49.617188 L 95.777344 49.617188 Z M 95.777344 19.839844 " fill-opacity="1" fill-rule="nonzero"/></g><g clip-path="url(#80632ba419)"><g clip-path="url(#06bb6edd9b)"><g clip-path="url(#19631b3a47)"><path fill="#000000" d="M 101.089844 19.488281 L 96.808594 35.398438 L 101.84375 35.226562 L 99.742188 50.328125 L 110.191406 30.421875 L 105.429688 30.53125 L 111.660156 19.355469 Z M 101.089844 19.488281 " fill-opacity="1" fill-rule="nonzero"/></g></g></g><g clip-path="url(#e76a47c491)"><path stroke-linecap="butt" transform="matrix(0.365929, 0, 0, 0.365929, 68.173875, 12.968807)" fill="none" stroke-linejoin="miter" d="M 75.754272 86.957546 C 75.754272 87.566015 75.775622 88.516081 75.818322 89.818418 C 75.861021 91.099406 75.903721 92.455117 75.94642 93.885553 C 76.01047 95.29464 76.063844 96.511578 76.106544 97.547043 C 76.149244 98.571833 76.170593 99.084228 76.170593 99.084228 C 76.170593 99.692697 75.903721 100.002269 75.380651 100.002269 L 4.253819 100.002269 C 3.837498 100.002269 3.624 99.692697 3.624 99.084228 L 3.624 97.034648 C 3.624 96.949249 3.624 96.906549 3.624 96.906549 C 3.624 96.746426 3.624 96.564952 3.624 96.372804 L 3.624 56.096422 C 3.624 52.765854 3.624 49.413937 3.624 46.051345 C 3.624 42.688752 3.709399 39.32616 3.880198 35.963568 C 3.880198 32.963922 3.837498 29.996301 3.752099 27.082054 C 3.752099 25.779717 3.730749 24.520079 3.68805 23.324491 C 3.64535 22.128903 3.6667 20.87994 3.752099 19.577603 C 3.837498 19.075882 4.083021 18.819685 4.510017 18.819685 L 40.783313 18.819685 C 41.220984 18.819685 41.445157 19.118582 41.445157 19.705701 C 41.445157 22.459824 41.519881 25.181923 41.690679 27.893347 C 41.861478 30.60477 41.989576 33.337543 42.074976 36.091667 C 42.1497 37.895724 42.192399 39.678432 42.192399 41.450464 C 42.192399 43.211822 42.192399 44.95183 42.192399 46.681163 C 42.277799 47.898102 42.277799 49.648785 42.192399 51.943887 C 42.117675 54.206965 42.032276 56.427343 41.946877 58.594347 C 41.861478 60.729327 41.861478 62.138413 41.946877 62.810931 C 41.946877 63.953145 41.946877 65.116709 41.946877 66.312297 C 41.946877 67.507885 42.245774 68.500651 42.854243 69.269243 C 43.19584 69.802988 44.17793 70.144585 45.821864 70.315383 C 47.455123 70.486181 49.184456 70.560906 50.988514 70.560906 C 52.792571 70.560906 54.126933 70.560906 54.9916 70.560906 C 55.856266 70.560906 57.190628 70.550231 58.994686 70.507531 C 60.798743 70.464832 62.752249 70.400782 64.855204 70.315383 C 66.979508 70.229984 69.007738 70.144585 70.939894 70.059186 C 72.87205 69.973786 74.398561 69.931087 75.50875 69.931087 C 75.94642 70.016486 76.127894 70.272684 76.042495 70.689004 C 76.042495 70.859803 76.042495 71.510971 76.042495 72.64251 C 76.042495 73.763375 76.01047 74.926938 75.94642 76.143876 C 75.903721 77.339465 75.882371 78.236156 75.882371 78.823275 C 75.796972 80.211012 75.754272 81.598748 75.754272 82.986485 C 75.754272 84.352871 75.754272 85.676558 75.754272 86.957546 Z M 75.754272 86.957546 " stroke="#000000" stroke-width="9.681525" stroke-opacity="1" stroke-miterlimit="4"/></g><g fill="#ffffff" fill-opacity="1"><g transform="translate(68.173875, 49.56167)"><g><path d="M 27.71875 -4.765625 C 27.71875 -4.546875 27.726562 -4.195312 27.75 -3.71875 C 27.769531 -3.25 27.785156 -2.753906 27.796875 -2.234375 C 27.816406 -1.722656 27.832031 -1.273438 27.84375 -0.890625 C 27.863281 -0.515625 27.875 -0.328125 27.875 -0.328125 C 27.875 -0.109375 27.773438 0 27.578125 0 L 1.5625 0 C 1.40625 0 1.328125 -0.109375 1.328125 -0.328125 L 1.328125 -1.09375 C 1.328125 -1.125 1.328125 -1.140625 1.328125 -1.140625 C 1.328125 -1.203125 1.328125 -1.265625 1.328125 -1.328125 L 1.328125 -16.0625 C 1.328125 -17.289062 1.328125 -18.519531 1.328125 -19.75 C 1.328125 -20.976562 1.359375 -22.203125 1.421875 -23.421875 C 1.421875 -24.523438 1.40625 -25.613281 1.375 -26.6875 C 1.375 -27.15625 1.363281 -27.609375 1.34375 -28.046875 C 1.332031 -28.492188 1.34375 -28.953125 1.375 -29.421875 C 1.40625 -29.609375 1.5 -29.703125 1.65625 -29.703125 L 14.921875 -29.703125 C 15.078125 -29.703125 15.15625 -29.59375 15.15625 -29.375 C 15.15625 -28.375 15.1875 -27.375 15.25 -26.375 C 15.3125 -25.382812 15.359375 -24.382812 15.390625 -23.375 C 15.429688 -22.71875 15.453125 -22.066406 15.453125 -21.421875 C 15.453125 -20.773438 15.453125 -20.132812 15.453125 -19.5 C 15.484375 -19.0625 15.476562 -18.425781 15.4375 -17.59375 C 15.40625 -16.757812 15.375 -15.945312 15.34375 -15.15625 C 15.3125 -14.375 15.3125 -13.859375 15.34375 -13.609375 C 15.34375 -13.191406 15.34375 -12.765625 15.34375 -12.328125 C 15.34375 -11.890625 15.457031 -11.523438 15.6875 -11.234375 C 15.8125 -11.046875 16.171875 -10.921875 16.765625 -10.859375 C 17.367188 -10.796875 18 -10.765625 18.65625 -10.765625 C 19.320312 -10.765625 19.8125 -10.765625 20.125 -10.765625 C 20.4375 -10.765625 20.921875 -10.769531 21.578125 -10.78125 C 22.242188 -10.800781 22.960938 -10.828125 23.734375 -10.859375 C 24.503906 -10.890625 25.242188 -10.921875 25.953125 -10.953125 C 26.660156 -10.984375 27.21875 -11 27.625 -11 C 27.789062 -10.96875 27.859375 -10.875 27.828125 -10.71875 C 27.828125 -10.65625 27.828125 -10.421875 27.828125 -10.015625 C 27.828125 -9.609375 27.816406 -9.179688 27.796875 -8.734375 C 27.785156 -8.296875 27.78125 -7.96875 27.78125 -7.75 C 27.738281 -7.238281 27.71875 -6.734375 27.71875 -6.234375 C 27.71875 -5.734375 27.71875 -5.242188 27.71875 -4.765625 Z M 27.71875 -4.765625 "/></g></g></g><g clip-path="url(#8727e0f9e2)"><path stroke-linecap="butt" transform="matrix(0.365929, 0, 0, 0.365929, 43.778193, 12.968807)" fill="none" stroke-linejoin="miter" d="M 75.511893 65.810577 C 75.511893 66.835367 75.490543 68.404577 75.447844 70.507531 C 75.405144 72.599811 75.362444 74.926938 75.319745 77.467563 C 75.277045 80.008189 75.277045 82.484765 75.319745 84.907966 C 75.362444 87.299143 75.469193 89.316698 75.629317 90.960632 L 75.629317 98.710606 C 75.629317 99.564598 75.202321 100.002269 74.337654 100.002269 L 44.149049 100.002269 C 38.726201 100.002269 34.29612 99.682022 30.848128 99.052203 C 27.410812 98.401034 24.678038 97.600417 22.660483 96.661026 C 20.642928 95.689611 19.020343 94.878319 17.803405 94.2058 C 15.999348 93.063586 14.23799 91.771924 12.508657 90.320138 C 10.789999 88.857677 9.412937 87.299143 8.377472 85.665884 C 6.157094 82.047094 4.715983 78.801925 4.064814 75.919704 C 3.413646 73.048156 3.093399 70.187284 3.093399 67.347762 L 3.093399 51.847813 C 3.093399 51.847813 3.093399 52.093336 3.093399 52.573706 C 3.093399 53.032727 3.093399 53.481072 3.093399 53.929418 C 3.093399 54.345739 3.093399 54.431138 3.093399 54.17494 C 3.093399 53.929418 3.093399 53.107451 3.093399 51.719714 C 3.093399 48.880192 3.296222 46.136744 3.723218 43.46802 C 4.160888 40.799296 4.769357 38.333395 5.548625 36.091667 C 6.242493 33.946013 7.309983 32.013856 8.761768 30.295198 C 10.234904 28.565865 11.782764 26.889906 13.426698 25.245972 C 15.230755 23.634063 17.557883 22.353076 20.38673 21.40301 C 23.226252 20.442269 26.300623 19.769751 29.620515 19.385454 C 32.940408 19.011833 36.185576 18.819685 39.35602 18.819685 L 73.579737 18.819685 C 73.921333 18.819685 74.337654 19.065208 74.850049 19.545578 C 75.373119 20.004598 75.629317 20.410244 75.629317 20.741166 L 75.629317 27.327577 C 75.543918 27.669174 75.490543 28.01077 75.447844 28.373717 C 75.405144 28.704639 75.383794 29.046235 75.383794 29.377157 C 75.298395 30.156424 75.277045 31.725634 75.319745 34.106136 C 75.362444 36.475963 75.405144 39.016588 75.447844 41.728012 C 75.490543 44.439435 75.522568 46.787912 75.565267 48.762768 C 75.607967 50.737624 75.629317 51.719714 75.629317 51.719714 C 75.629317 52.584381 75.245021 53.011377 74.465753 53.011377 C 73.707836 52.925978 72.266725 52.904628 70.153095 52.947327 C 68.050141 52.990027 65.605589 53.032727 62.808767 53.075426 C 60.011944 53.118126 57.257821 53.182175 54.546397 53.267574 C 51.834974 53.352973 49.465147 53.417023 47.426242 53.449047 C 45.408686 53.491747 44.191748 53.513097 43.775427 53.513097 C 41.192102 53.513097 39.323996 54.110891 38.192457 55.28513 C 37.082267 56.438018 36.527173 57.526858 36.527173 58.562323 C 36.527173 60.718652 37.381165 62.319886 39.110498 63.344676 C 40.583633 64.209343 41.768547 64.700388 42.665238 64.828487 C 43.572604 64.956585 44.842917 65.106034 46.486851 65.276832 C 47.511641 65.351556 49.12355 65.394256 51.301229 65.394256 C 53.510932 65.394256 55.891434 65.372906 58.453409 65.330207 C 61.036734 65.298182 63.523985 65.255482 65.893812 65.212783 C 68.274313 65.170083 70.249169 65.127384 71.818379 65.084684 C 73.419613 65.041985 74.252255 65.020635 74.337654 65.020635 C 74.946123 65.020635 75.341095 65.287507 75.511893 65.810577 Z M 75.511893 65.810577 " stroke="#000000" stroke-width="9.681525" stroke-opacity="1" stroke-miterlimit="4"/></g><g fill="#ffffff" fill-opacity="1"><g transform="translate(43.778193, 49.56167)"><g><path d="M 27.625 -12.515625 C 27.625 -12.140625 27.613281 -11.566406 27.59375 -10.796875 C 27.582031 -10.023438 27.566406 -9.171875 27.546875 -8.234375 C 27.535156 -7.304688 27.535156 -6.398438 27.546875 -5.515625 C 27.566406 -4.640625 27.609375 -3.90625 27.671875 -3.3125 L 27.671875 -0.46875 C 27.671875 -0.15625 27.515625 0 27.203125 0 L 16.15625 0 C 14.164062 0 12.539062 -0.113281 11.28125 -0.34375 C 10.03125 -0.582031 9.03125 -0.875 8.28125 -1.21875 C 7.539062 -1.570312 6.953125 -1.875 6.515625 -2.125 C 5.859375 -2.53125 5.210938 -3 4.578125 -3.53125 C 3.953125 -4.070312 3.445312 -4.644531 3.0625 -5.25 C 2.25 -6.570312 1.722656 -7.757812 1.484375 -8.8125 C 1.253906 -9.863281 1.140625 -10.910156 1.140625 -11.953125 L 1.140625 -17.625 C 1.140625 -17.625 1.140625 -17.535156 1.140625 -17.359375 C 1.140625 -17.179688 1.140625 -17.015625 1.140625 -16.859375 C 1.140625 -16.703125 1.140625 -16.671875 1.140625 -16.765625 C 1.140625 -16.859375 1.140625 -17.160156 1.140625 -17.671875 C 1.140625 -18.703125 1.21875 -19.707031 1.375 -20.6875 C 1.53125 -21.664062 1.75 -22.5625 2.03125 -23.375 C 2.28125 -24.164062 2.671875 -24.875 3.203125 -25.5 C 3.742188 -26.132812 4.3125 -26.75 4.90625 -27.34375 C 5.570312 -27.945312 6.421875 -28.421875 7.453125 -28.765625 C 8.492188 -29.109375 9.617188 -29.347656 10.828125 -29.484375 C 12.046875 -29.628906 13.238281 -29.703125 14.40625 -29.703125 L 26.921875 -29.703125 C 27.046875 -29.703125 27.203125 -29.613281 27.390625 -29.4375 C 27.578125 -29.269531 27.671875 -29.125 27.671875 -29 L 27.671875 -26.59375 C 27.640625 -26.46875 27.613281 -26.34375 27.59375 -26.21875 C 27.582031 -26.09375 27.578125 -25.96875 27.578125 -25.84375 C 27.546875 -25.550781 27.535156 -24.972656 27.546875 -24.109375 C 27.566406 -23.242188 27.582031 -22.316406 27.59375 -21.328125 C 27.613281 -20.335938 27.628906 -19.476562 27.640625 -18.75 C 27.660156 -18.03125 27.671875 -17.671875 27.671875 -17.671875 C 27.671875 -17.347656 27.53125 -17.1875 27.25 -17.1875 C 26.96875 -17.21875 26.441406 -17.222656 25.671875 -17.203125 C 24.898438 -17.191406 24 -17.175781 22.96875 -17.15625 C 21.945312 -17.144531 20.941406 -17.125 19.953125 -17.09375 C 18.960938 -17.0625 18.097656 -17.035156 17.359375 -17.015625 C 16.617188 -17.003906 16.171875 -17 16.015625 -17 C 15.066406 -17 14.390625 -16.785156 13.984375 -16.359375 C 13.578125 -15.941406 13.375 -15.539062 13.375 -15.15625 C 13.375 -14.375 13.6875 -13.796875 14.3125 -13.421875 C 14.84375 -13.097656 15.273438 -12.910156 15.609375 -12.859375 C 15.941406 -12.816406 16.40625 -12.765625 17 -12.703125 C 17.382812 -12.671875 17.976562 -12.65625 18.78125 -12.65625 C 19.582031 -12.65625 20.453125 -12.660156 21.390625 -12.671875 C 22.335938 -12.691406 23.242188 -12.707031 24.109375 -12.71875 C 24.972656 -12.738281 25.695312 -12.753906 26.28125 -12.765625 C 26.863281 -12.785156 27.171875 -12.796875 27.203125 -12.796875 C 27.421875 -12.796875 27.5625 -12.703125 27.625 -12.515625 Z M 27.625 -12.515625 "/></g></g></g><g clip-path="url(#7c03a34664)"><path stroke-linecap="butt" transform="matrix(0.365929, 0, 0, 0.365929, 19.382514, 12.968807)" fill="none" stroke-linejoin="miter" d="M 75.258833 78.567078 C 75.258833 79.687942 75.258833 80.915555 75.258833 82.260592 C 75.258833 83.584279 75.258833 84.715818 75.258833 85.665884 C 75.258833 86.359752 75.280183 87.395217 75.322883 88.782953 C 75.354907 90.14934 75.418957 91.63315 75.504356 93.22371 C 75.589755 94.824944 75.653805 96.180656 75.696504 97.290845 C 75.739204 98.401034 75.760553 98.956129 75.760553 98.956129 C 75.760553 99.649997 75.418957 100.002269 74.746438 100.002269 L 4.911269 100.002269 C 3.694331 100.002269 3.128561 99.404475 3.21396 98.208886 C 3.491508 91.729224 3.640956 85.249563 3.683656 78.759226 C 3.726355 72.268889 3.790405 65.757203 3.875804 59.224166 C 3.961203 52.851253 4.196051 46.446316 4.569672 39.998679 C 4.964643 33.529692 4.697771 27.114079 3.747705 20.741166 C 3.662306 20.218096 3.790405 19.769751 4.132002 19.385454 C 4.462923 19.011833 4.889919 18.819685 5.423664 18.819685 L 74.212694 18.819685 C 74.735763 18.819685 75.088035 19.075882 75.258833 19.577603 C 75.258833 19.663002 75.237484 20.047298 75.194784 20.741166 C 75.152084 21.435034 75.088035 22.128903 75.002636 22.822771 C 75.002636 23.239092 74.959936 24.231857 74.874537 25.790392 C 74.789138 27.338252 74.714414 28.960836 74.661039 30.636795 C 74.61834 32.302079 74.59699 33.561716 74.59699 34.415708 C 74.59699 35.280375 74.639689 36.337189 74.714414 37.607502 C 74.821163 38.84579 74.938587 39.955979 75.066685 40.938069 C 75.194784 41.930835 75.258833 42.42188 75.258833 42.42188 C 75.258833 43.115748 74.863862 43.46802 74.084595 43.46802 C 74.084595 43.46802 73.251953 43.44667 71.565319 43.40397 C 69.889361 43.361271 67.754382 43.339921 65.171057 43.339921 C 62.609082 43.339921 59.876308 43.339921 56.972737 43.339921 C 54.10119 43.339921 51.432466 43.382621 48.97724 43.46802 C 46.532688 43.553419 44.621882 43.670843 43.234145 43.841641 C 41.953158 44.012439 40.640146 44.396736 39.295109 45.005205 C 37.971422 45.613674 37.224179 46.702513 37.064056 48.250373 C 36.957307 49.200439 37.245529 50.001056 37.939397 50.652225 C 38.633265 51.282044 39.369833 51.762414 40.149101 52.104011 C 40.565421 52.178735 41.910458 52.274809 44.184211 52.381558 C 46.468639 52.466957 49.212087 52.509657 52.403881 52.509657 C 55.595675 52.509657 58.808819 52.488307 62.021962 52.445607 C 65.256456 52.402908 67.989229 52.381558 70.209608 52.381558 C 72.462011 52.381558 73.753673 52.381558 74.084595 52.381558 C 74.863862 52.381558 75.258833 52.723155 75.258833 53.395673 L 75.258833 64.102594 C 75.258833 65.052659 75.258833 65.874626 75.258833 66.568495 C 75.258833 67.262363 75.258833 67.988256 75.258833 68.767523 C 75.258833 69.461391 74.863862 69.813663 74.084595 69.813663 C 72.622134 69.813663 70.572554 69.792313 67.94653 69.749614 C 65.341855 69.685564 62.630431 69.61084 59.812259 69.525441 C 57.015436 69.440042 54.496161 69.375992 52.254433 69.333293 C 50.023379 69.290593 48.528894 69.269243 47.770976 69.269243 C 46.916985 69.354642 45.849495 69.397342 44.589857 69.397342 C 43.351569 69.397342 42.166656 69.578815 41.035117 69.931087 C 39.914253 70.272684 39.113636 70.955877 38.601241 71.980667 C 37.747249 73.624601 37.864673 74.980313 38.985537 76.047802 C 40.095726 77.125967 41.344689 77.83051 42.732425 78.193456 C 43.597092 78.364255 45.35845 78.449654 48.027174 78.449654 C 50.695898 78.449654 53.716893 78.385604 57.100835 78.257506 C 60.506127 78.129407 63.772645 78.001308 66.90039 77.873209 C 70.060159 77.734436 72.451336 77.617012 74.084595 77.531613 C 74.863862 77.531613 75.258833 77.873209 75.258833 78.567078 Z M 75.258833 78.567078 " stroke="#000000" stroke-width="9.681525" stroke-opacity="1" stroke-miterlimit="4"/></g><g fill="#ffffff" fill-opacity="1"><g transform="translate(19.382514, 49.56167)"><g><path d="M 27.53125 -7.84375 C 27.53125 -7.4375 27.53125 -6.988281 27.53125 -6.5 C 27.53125 -6.007812 27.53125 -5.59375 27.53125 -5.25 C 27.53125 -4.988281 27.535156 -4.609375 27.546875 -4.109375 C 27.566406 -3.609375 27.59375 -3.066406 27.625 -2.484375 C 27.65625 -1.898438 27.675781 -1.398438 27.6875 -0.984375 C 27.707031 -0.578125 27.71875 -0.375 27.71875 -0.375 C 27.71875 -0.125 27.59375 0 27.34375 0 L 1.796875 0 C 1.359375 0 1.15625 -0.21875 1.1875 -0.65625 C 1.28125 -3.019531 1.332031 -5.390625 1.34375 -7.765625 C 1.363281 -10.148438 1.390625 -12.535156 1.421875 -14.921875 C 1.453125 -17.253906 1.535156 -19.597656 1.671875 -21.953125 C 1.816406 -24.316406 1.71875 -26.664062 1.375 -29 C 1.34375 -29.1875 1.390625 -29.347656 1.515625 -29.484375 C 1.640625 -29.628906 1.796875 -29.703125 1.984375 -29.703125 L 27.15625 -29.703125 C 27.34375 -29.703125 27.46875 -29.609375 27.53125 -29.421875 C 27.53125 -29.390625 27.519531 -29.25 27.5 -29 C 27.488281 -28.75 27.46875 -28.5 27.4375 -28.25 C 27.4375 -28.09375 27.421875 -27.726562 27.390625 -27.15625 C 27.359375 -26.59375 27.332031 -26.003906 27.3125 -25.390625 C 27.300781 -24.773438 27.296875 -24.3125 27.296875 -24 C 27.296875 -23.675781 27.3125 -23.285156 27.34375 -22.828125 C 27.375 -22.378906 27.410156 -21.972656 27.453125 -21.609375 C 27.503906 -21.242188 27.53125 -21.0625 27.53125 -21.0625 C 27.53125 -20.8125 27.390625 -20.6875 27.109375 -20.6875 C 27.109375 -20.6875 26.800781 -20.691406 26.1875 -20.703125 C 25.570312 -20.722656 24.789062 -20.734375 23.84375 -20.734375 C 22.90625 -20.734375 21.90625 -20.734375 20.84375 -20.734375 C 19.789062 -20.734375 18.816406 -20.71875 17.921875 -20.6875 C 17.023438 -20.65625 16.328125 -20.609375 15.828125 -20.546875 C 15.347656 -20.484375 14.863281 -20.34375 14.375 -20.125 C 13.894531 -19.90625 13.625 -19.507812 13.5625 -18.9375 C 13.53125 -18.59375 13.640625 -18.300781 13.890625 -18.0625 C 14.140625 -17.832031 14.40625 -17.65625 14.6875 -17.53125 C 14.84375 -17.5 15.335938 -17.460938 16.171875 -17.421875 C 17.003906 -17.390625 18.003906 -17.375 19.171875 -17.375 C 20.335938 -17.375 21.507812 -17.378906 22.6875 -17.390625 C 23.875 -17.410156 24.875 -17.421875 25.6875 -17.421875 C 26.507812 -17.421875 26.984375 -17.421875 27.109375 -17.421875 C 27.390625 -17.421875 27.53125 -17.296875 27.53125 -17.046875 L 27.53125 -13.125 C 27.53125 -12.78125 27.53125 -12.484375 27.53125 -12.234375 C 27.53125 -11.984375 27.53125 -11.71875 27.53125 -11.4375 C 27.53125 -11.175781 27.390625 -11.046875 27.109375 -11.046875 C 26.578125 -11.046875 25.828125 -11.050781 24.859375 -11.0625 C 23.898438 -11.082031 22.910156 -11.109375 21.890625 -11.140625 C 20.867188 -11.171875 19.945312 -11.191406 19.125 -11.203125 C 18.3125 -11.222656 17.765625 -11.234375 17.484375 -11.234375 C 17.160156 -11.203125 16.769531 -11.1875 16.3125 -11.1875 C 15.863281 -11.1875 15.429688 -11.125 15.015625 -11 C 14.609375 -10.875 14.3125 -10.625 14.125 -10.25 C 13.8125 -9.65625 13.859375 -9.160156 14.265625 -8.765625 C 14.671875 -8.367188 15.128906 -8.109375 15.640625 -7.984375 C 15.953125 -7.921875 16.59375 -7.890625 17.5625 -7.890625 C 18.539062 -7.890625 19.648438 -7.910156 20.890625 -7.953125 C 22.140625 -8.003906 23.335938 -8.050781 24.484375 -8.09375 C 25.640625 -8.144531 26.515625 -8.1875 27.109375 -8.21875 C 27.390625 -8.21875 27.53125 -8.09375 27.53125 -7.84375 Z M 27.53125 -7.84375 "/></g></g></g><path fill="#000000" d="M 25.183594 59.628906 L 173.382812 59.628906 C 174.625 59.628906 175.632812 60.632812 175.632812 61.875 L 175.632812 66.371094 C 175.632812 67.613281 174.625 68.617188 173.382812 68.617188 L 25.183594 68.617188 C 23.945312 68.617188 22.9375 67.613281 22.9375 66.371094 L 22.9375 61.875 C 22.9375 60.632812 23.945312 59.628906 25.183594 59.628906 Z M 25.183594 59.628906 " fill-opacity="1" fill-rule="nonzero"/><g fill="#ffffff" fill-opacity="1"><g transform="translate(26.349276, 65.652847)"><g><path d="M 1.3125 0 L 1.3125 -1.40625 L 0.109375 -3.6875 L 0.609375 -3.6875 L 1.53125 -1.828125 L 2.453125 -3.6875 L 2.9375 -3.6875 L 1.75 -1.40625 L 1.75 0 Z M 1.3125 0 "/></g></g></g><g fill="#ffffff" fill-opacity="1"><g transform="translate(32.004859, 65.652847)"><g><path d="M 2.0625 0.0625 C 1.695312 0.0625 1.378906 -0.015625 1.109375 -0.171875 C 0.835938 -0.335938 0.625 -0.5625 0.46875 -0.84375 C 0.320312 -1.132812 0.25 -1.46875 0.25 -1.84375 C 0.25 -2.21875 0.320312 -2.546875 0.46875 -2.828125 C 0.625 -3.117188 0.835938 -3.34375 1.109375 -3.5 C 1.378906 -3.664062 1.695312 -3.75 2.0625 -3.75 C 2.425781 -3.75 2.742188 -3.664062 3.015625 -3.5 C 3.285156 -3.34375 3.492188 -3.117188 3.640625 -2.828125 C 3.796875 -2.546875 3.875 -2.21875 3.875 -1.84375 C 3.875 -1.46875 3.796875 -1.132812 3.640625 -0.84375 C 3.492188 -0.5625 3.285156 -0.335938 3.015625 -0.171875 C 2.742188 -0.015625 2.425781 0.0625 2.0625 0.0625 Z M 2.0625 -0.328125 C 2.332031 -0.328125 2.566406 -0.382812 2.765625 -0.5 C 2.972656 -0.625 3.132812 -0.800781 3.25 -1.03125 C 3.363281 -1.257812 3.421875 -1.53125 3.421875 -1.84375 C 3.421875 -2.15625 3.363281 -2.421875 3.25 -2.640625 C 3.132812 -2.867188 2.972656 -3.046875 2.765625 -3.171875 C 2.566406 -3.296875 2.332031 -3.359375 2.0625 -3.359375 C 1.789062 -3.359375 1.550781 -3.296875 1.34375 -3.171875 C 1.144531 -3.046875 0.988281 -2.867188 0.875 -2.640625 C 0.757812 -2.421875 0.703125 -2.15625 0.703125 -1.84375 C 0.703125 -1.53125 0.757812 -1.257812 0.875 -1.03125 C 0.988281 -0.800781 1.144531 -0.625 1.34375 -0.5 C 1.550781 -0.382812 1.789062 -0.328125 2.0625 -0.328125 Z M 2.0625 -0.328125 "/></g></g></g><g fill="#ffffff" fill-opacity="1"><g transform="translate(38.739473, 65.652847)"><g><path d="M 1.71875 0.0625 C 1.46875 0.0625 1.238281 0.015625 1.03125 -0.078125 C 0.832031 -0.179688 0.671875 -0.335938 0.546875 -0.546875 C 0.421875 -0.765625 0.359375 -1.035156 0.359375 -1.359375 L 0.359375 -3.6875 L 0.796875 -3.6875 L 0.796875 -1.359375 C 0.796875 -0.992188 0.878906 -0.726562 1.046875 -0.5625 C 1.222656 -0.40625 1.453125 -0.328125 1.734375 -0.328125 C 2.003906 -0.328125 2.222656 -0.40625 2.390625 -0.5625 C 2.566406 -0.726562 2.65625 -0.992188 2.65625 -1.359375 L 2.65625 -3.6875 L 3.09375 -3.6875 L 3.09375 -1.359375 C 3.09375 -1.035156 3.03125 -0.765625 2.90625 -0.546875 C 2.789062 -0.335938 2.628906 -0.179688 2.421875 -0.078125 C 2.210938 0.015625 1.976562 0.0625 1.71875 0.0625 Z M 1.71875 0.0625 "/></g></g></g><g fill="#ffffff" fill-opacity="1"><g transform="translate(44.800351, 65.652847)"><g><path d="M 0.390625 0 L 0.390625 -3.6875 L 1.578125 -3.6875 C 1.867188 -3.6875 2.101562 -3.640625 2.28125 -3.546875 C 2.46875 -3.453125 2.601562 -3.320312 2.6875 -3.15625 C 2.78125 -2.988281 2.828125 -2.804688 2.828125 -2.609375 C 2.828125 -2.378906 2.765625 -2.171875 2.640625 -1.984375 C 2.515625 -1.796875 2.316406 -1.660156 2.046875 -1.578125 L 2.859375 0 L 2.34375 0 L 1.59375 -1.515625 L 0.828125 -1.515625 L 0.828125 0 Z M 0.828125 -1.875 L 1.546875 -1.875 C 1.828125 -1.875 2.03125 -1.941406 2.15625 -2.078125 C 2.289062 -2.210938 2.359375 -2.382812 2.359375 -2.59375 C 2.359375 -2.8125 2.296875 -2.984375 2.171875 -3.109375 C 2.046875 -3.242188 1.835938 -3.3125 1.546875 -3.3125 L 0.828125 -3.3125 Z M 0.828125 -1.875 "/></g></g></g><g fill="#ffffff" fill-opacity="1"><g transform="translate(50.529625, 65.652847)"><g/></g></g><g fill="#ffffff" fill-opacity="1"><g transform="translate(54.532451, 65.652847)"><g><path d="M 0.390625 0 L 0.390625 -3.6875 L 1.6875 -3.6875 C 1.945312 -3.6875 2.160156 -3.644531 2.328125 -3.5625 C 2.492188 -3.476562 2.617188 -3.363281 2.703125 -3.21875 C 2.796875 -3.082031 2.84375 -2.925781 2.84375 -2.75 C 2.84375 -2.507812 2.773438 -2.320312 2.640625 -2.1875 C 2.515625 -2.050781 2.363281 -1.957031 2.1875 -1.90625 C 2.320312 -1.875 2.445312 -1.816406 2.5625 -1.734375 C 2.675781 -1.648438 2.765625 -1.546875 2.828125 -1.421875 C 2.890625 -1.296875 2.921875 -1.15625 2.921875 -1 C 2.921875 -0.820312 2.875 -0.65625 2.78125 -0.5 C 2.695312 -0.34375 2.5625 -0.21875 2.375 -0.125 C 2.195312 -0.0390625 1.984375 0 1.734375 0 Z M 0.828125 -2.078125 L 1.65625 -2.078125 C 1.882812 -2.078125 2.0625 -2.128906 2.1875 -2.234375 C 2.320312 -2.347656 2.390625 -2.503906 2.390625 -2.703125 C 2.390625 -2.890625 2.328125 -3.035156 2.203125 -3.140625 C 2.078125 -3.253906 1.890625 -3.3125 1.640625 -3.3125 L 0.828125 -3.3125 Z M 0.828125 -0.375 L 1.6875 -0.375 C 1.9375 -0.375 2.128906 -0.429688 2.265625 -0.546875 C 2.398438 -0.660156 2.46875 -0.820312 2.46875 -1.03125 C 2.46875 -1.238281 2.394531 -1.40625 2.25 -1.53125 C 2.101562 -1.65625 1.910156 -1.71875 1.671875 -1.71875 L 0.828125 -1.71875 Z M 0.828125 -0.375 "/></g></g></g><g fill="#ffffff" fill-opacity="1"><g transform="translate(60.309101, 65.652847)"><g><path d="M 0.390625 0 L 0.390625 -3.6875 L 1.578125 -3.6875 C 1.867188 -3.6875 2.101562 -3.640625 2.28125 -3.546875 C 2.46875 -3.453125 2.601562 -3.320312 2.6875 -3.15625 C 2.78125 -2.988281 2.828125 -2.804688 2.828125 -2.609375 C 2.828125 -2.378906 2.765625 -2.171875 2.640625 -1.984375 C 2.515625 -1.796875 2.316406 -1.660156 2.046875 -1.578125 L 2.859375 0 L 2.34375 0 L 1.59375 -1.515625 L 0.828125 -1.515625 L 0.828125 0 Z M 0.828125 -1.875 L 1.546875 -1.875 C 1.828125 -1.875 2.03125 -1.941406 2.15625 -2.078125 C 2.289062 -2.210938 2.359375 -2.382812 2.359375 -2.59375 C 2.359375 -2.8125 2.296875 -2.984375 2.171875 -3.109375 C 2.046875 -3.242188 1.835938 -3.3125 1.546875 -3.3125 L 0.828125 -3.3125 Z M 0.828125 -1.875 "/></g></g></g><g fill="#ffffff" fill-opacity="1"><g transform="translate(66.038374, 65.652847)"><g><path d="M 0.15625 0 L 1.515625 -3.6875 L 1.984375 -3.6875 L 3.34375 0 L 2.875 0 L 2.53125 -0.953125 L 0.96875 -0.953125 L 0.625 0 Z M 1.09375 -1.3125 L 2.40625 -1.3125 L 1.75 -3.125 Z M 1.09375 -1.3125 "/></g></g></g><g fill="#ffffff" fill-opacity="1"><g transform="translate(72.14136, 65.652847)"><g><path d="M 0.390625 0 L 0.390625 -3.6875 L 0.828125 -3.6875 L 2.796875 -0.734375 L 2.796875 -3.6875 L 3.234375 -3.6875 L 3.234375 0 L 2.796875 0 L 0.828125 -2.953125 L 0.828125 0 Z M 0.390625 0 "/></g></g></g><g fill="#ffffff" fill-opacity="1"><g transform="translate(78.375938, 65.652847)"><g><path d="M 0.390625 0 L 0.390625 -3.6875 L 1.515625 -3.6875 C 2.171875 -3.6875 2.648438 -3.519531 2.953125 -3.1875 C 3.265625 -2.863281 3.421875 -2.410156 3.421875 -1.828125 C 3.421875 -1.265625 3.265625 -0.816406 2.953125 -0.484375 C 2.648438 -0.160156 2.171875 0 1.515625 0 Z M 0.828125 -0.375 L 1.515625 -0.375 C 1.867188 -0.375 2.148438 -0.429688 2.359375 -0.546875 C 2.578125 -0.660156 2.726562 -0.828125 2.8125 -1.046875 C 2.90625 -1.265625 2.953125 -1.523438 2.953125 -1.828125 C 2.953125 -2.140625 2.90625 -2.40625 2.8125 -2.625 C 2.726562 -2.84375 2.578125 -3.007812 2.359375 -3.125 C 2.148438 -3.25 1.867188 -3.3125 1.515625 -3.3125 L 0.828125 -3.3125 Z M 0.828125 -0.375 "/></g></g></g><g fill="#ffffff" fill-opacity="1"><g transform="translate(84.647361, 65.652847)"><g/></g></g><g fill="#ffffff" fill-opacity="1"><g transform="translate(88.650188, 65.652847)"><g><path d="M 0.390625 0.53125 L 0.390625 -3.796875 L 0.828125 -3.796875 L 0.828125 0.53125 Z M 0.390625 0.53125 "/></g></g></g><g fill="#ffffff" fill-opacity="1"><g transform="translate(92.47932, 65.652847)"><g/></g></g><g fill="#ffffff" fill-opacity="1"><g transform="translate(96.482147, 65.652847)"><g><path d="M 2.0625 0.0625 C 1.695312 0.0625 1.378906 -0.015625 1.109375 -0.171875 C 0.835938 -0.335938 0.625 -0.5625 0.46875 -0.84375 C 0.320312 -1.132812 0.25 -1.46875 0.25 -1.84375 C 0.25 -2.21875 0.320312 -2.546875 0.46875 -2.828125 C 0.625 -3.117188 0.835938 -3.34375 1.109375 -3.5 C 1.378906 -3.664062 1.695312 -3.75 2.0625 -3.75 C 2.425781 -3.75 2.742188 -3.664062 3.015625 -3.5 C 3.285156 -3.34375 3.492188 -3.117188 3.640625 -2.828125 C 3.796875 -2.546875 3.875 -2.21875 3.875 -1.84375 C 3.875 -1.46875 3.796875 -1.132812 3.640625 -0.84375 C 3.492188 -0.5625 3.285156 -0.335938 3.015625 -0.171875 C 2.742188 -0.015625 2.425781 0.0625 2.0625 0.0625 Z M 2.0625 -0.328125 C 2.332031 -0.328125 2.566406 -0.382812 2.765625 -0.5 C 2.972656 -0.625 3.132812 -0.800781 3.25 -1.03125 C 3.363281 -1.257812 3.421875 -1.53125 3.421875 -1.84375 C 3.421875 -2.15625 3.363281 -2.421875 3.25 -2.640625 C 3.132812 -2.867188 2.972656 -3.046875 2.765625 -3.171875 C 2.566406 -3.296875 2.332031 -3.359375 2.0625 -3.359375 C 1.789062 -3.359375 1.550781 -3.296875 1.34375 -3.171875 C 1.144531 -3.046875 0.988281 -2.867188 0.875 -2.640625 C 0.757812 -2.421875 0.703125 -2.15625 0.703125 -1.84375 C 0.703125 -1.53125 0.757812 -1.257812 0.875 -1.03125 C 0.988281 -0.800781 1.144531 -0.625 1.34375 -0.5 C 1.550781 -0.382812 1.789062 -0.328125 2.0625 -0.328125 Z M 2.0625 -0.328125 "/></g></g></g><g fill="#ffffff" fill-opacity="1"><g transform="translate(103.216761, 65.652847)"><g><path d="M 1.71875 0.0625 C 1.46875 0.0625 1.238281 0.015625 1.03125 -0.078125 C 0.832031 -0.179688 0.671875 -0.335938 0.546875 -0.546875 C 0.421875 -0.765625 0.359375 -1.035156 0.359375 -1.359375 L 0.359375 -3.6875 L 0.796875 -3.6875 L 0.796875 -1.359375 C 0.796875 -0.992188 0.878906 -0.726562 1.046875 -0.5625 C 1.222656 -0.40625 1.453125 -0.328125 1.734375 -0.328125 C 2.003906 -0.328125 2.222656 -0.40625 2.390625 -0.5625 C 2.566406 -0.726562 2.65625 -0.992188 2.65625 -1.359375 L 2.65625 -3.6875 L 3.09375 -3.6875 L 3.09375 -1.359375 C 3.09375 -1.035156 3.03125 -0.765625 2.90625 -0.546875 C 2.789062 -0.335938 2.628906 -0.179688 2.421875 -0.078125 C 2.210938 0.015625 1.976562 0.0625 1.71875 0.0625 Z M 1.71875 0.0625 "/></g></g></g><g fill="#ffffff" fill-opacity="1"><g transform="translate(109.277639, 65.652847)"><g><path d="M 0.390625 0 L 0.390625 -3.6875 L 1.578125 -3.6875 C 1.867188 -3.6875 2.101562 -3.640625 2.28125 -3.546875 C 2.46875 -3.453125 2.601562 -3.320312 2.6875 -3.15625 C 2.78125 -2.988281 2.828125 -2.804688 2.828125 -2.609375 C 2.828125 -2.378906 2.765625 -2.171875 2.640625 -1.984375 C 2.515625 -1.796875 2.316406 -1.660156 2.046875 -1.578125 L 2.859375 0 L 2.34375 0 L 1.59375 -1.515625 L 0.828125 -1.515625 L 0.828125 0 Z M 0.828125 -1.875 L 1.546875 -1.875 C 1.828125 -1.875 2.03125 -1.941406 2.15625 -2.078125 C 2.289062 -2.210938 2.359375 -2.382812 2.359375 -2.59375 C 2.359375 -2.8125 2.296875 -2.984375 2.171875 -3.109375 C 2.046875 -3.242188 1.835938 -3.3125 1.546875 -3.3125 L 0.828125 -3.3125 Z M 0.828125 -1.875 "/></g></g></g><g fill="#ffffff" fill-opacity="1"><g transform="translate(115.006912, 65.652847)"><g/></g></g><g fill="#ffffff" fill-opacity="1"><g transform="translate(119.009739, 65.652847)"><g><path d="M 1.5625 0.0625 C 1.289062 0.0625 1.054688 0.015625 0.859375 -0.078125 C 0.660156 -0.179688 0.503906 -0.320312 0.390625 -0.5 C 0.285156 -0.675781 0.234375 -0.878906 0.234375 -1.109375 L 0.6875 -1.109375 C 0.6875 -0.960938 0.71875 -0.828125 0.78125 -0.703125 C 0.851562 -0.585938 0.953125 -0.492188 1.078125 -0.421875 C 1.210938 -0.347656 1.375 -0.3125 1.5625 -0.3125 C 1.8125 -0.3125 2.003906 -0.367188 2.140625 -0.484375 C 2.273438 -0.609375 2.34375 -0.757812 2.34375 -0.9375 C 2.34375 -1.082031 2.3125 -1.195312 2.25 -1.28125 C 2.1875 -1.375 2.101562 -1.445312 2 -1.5 C 1.894531 -1.5625 1.769531 -1.613281 1.625 -1.65625 C 1.488281 -1.695312 1.347656 -1.742188 1.203125 -1.796875 C 0.910156 -1.898438 0.695312 -2.023438 0.5625 -2.171875 C 0.425781 -2.316406 0.359375 -2.503906 0.359375 -2.734375 C 0.359375 -2.929688 0.40625 -3.101562 0.5 -3.25 C 0.59375 -3.40625 0.722656 -3.523438 0.890625 -3.609375 C 1.066406 -3.703125 1.273438 -3.75 1.515625 -3.75 C 1.753906 -3.75 1.957031 -3.703125 2.125 -3.609375 C 2.300781 -3.523438 2.4375 -3.40625 2.53125 -3.25 C 2.632812 -3.09375 2.6875 -2.921875 2.6875 -2.734375 L 2.21875 -2.734375 C 2.21875 -2.828125 2.191406 -2.925781 2.140625 -3.03125 C 2.085938 -3.132812 2.007812 -3.21875 1.90625 -3.28125 C 1.800781 -3.34375 1.664062 -3.375 1.5 -3.375 C 1.300781 -3.375 1.132812 -3.320312 1 -3.21875 C 0.875 -3.113281 0.8125 -2.96875 0.8125 -2.78125 C 0.8125 -2.625 0.851562 -2.503906 0.9375 -2.421875 C 1.03125 -2.335938 1.15625 -2.265625 1.3125 -2.203125 C 1.476562 -2.148438 1.671875 -2.085938 1.890625 -2.015625 C 2.054688 -1.953125 2.207031 -1.878906 2.34375 -1.796875 C 2.488281 -1.710938 2.601562 -1.601562 2.6875 -1.46875 C 2.769531 -1.34375 2.8125 -1.175781 2.8125 -0.96875 C 2.8125 -0.789062 2.765625 -0.625 2.671875 -0.46875 C 2.578125 -0.3125 2.4375 -0.179688 2.25 -0.078125 C 2.070312 0.015625 1.84375 0.0625 1.5625 0.0625 Z M 1.5625 0.0625 "/></g></g></g><g fill="#ffffff" fill-opacity="1"><g transform="translate(124.660054, 65.652847)"><g><path d="M 1.25 0 L 1.25 -3.328125 L 0.15625 -3.328125 L 0.15625 -3.6875 L 2.796875 -3.6875 L 2.796875 -3.328125 L 1.703125 -3.328125 L 1.703125 0 Z M 1.25 0 "/></g></g></g><g fill="#ffffff" fill-opacity="1"><g transform="translate(130.215627, 65.652847)"><g><path d="M 0.390625 0 L 0.390625 -3.6875 L 1.578125 -3.6875 C 1.867188 -3.6875 2.101562 -3.640625 2.28125 -3.546875 C 2.46875 -3.453125 2.601562 -3.320312 2.6875 -3.15625 C 2.78125 -2.988281 2.828125 -2.804688 2.828125 -2.609375 C 2.828125 -2.378906 2.765625 -2.171875 2.640625 -1.984375 C 2.515625 -1.796875 2.316406 -1.660156 2.046875 -1.578125 L 2.859375 0 L 2.34375 0 L 1.59375 -1.515625 L 0.828125 -1.515625 L 0.828125 0 Z M 0.828125 -1.875 L 1.546875 -1.875 C 1.828125 -1.875 2.03125 -1.941406 2.15625 -2.078125 C 2.289062 -2.210938 2.359375 -2.382812 2.359375 -2.59375 C 2.359375 -2.8125 2.296875 -2.984375 2.171875 -3.109375 C 2.046875 -3.242188 1.835938 -3.3125 1.546875 -3.3125 L 0.828125 -3.3125 Z M 0.828125 -1.875 "/></g></g></g><g fill="#ffffff" fill-opacity="1"><g transform="translate(135.944895, 65.652847)"><g><path d="M 0.15625 0 L 1.515625 -3.6875 L 1.984375 -3.6875 L 3.34375 0 L 2.875 0 L 2.53125 -0.953125 L 0.96875 -0.953125 L 0.625 0 Z M 1.09375 -1.3125 L 2.40625 -1.3125 L 1.75 -3.125 Z M 1.09375 -1.3125 "/></g></g></g><g fill="#ffffff" fill-opacity="1"><g transform="translate(142.047875, 65.652847)"><g><path d="M 1.25 0 L 1.25 -3.328125 L 0.15625 -3.328125 L 0.15625 -3.6875 L 2.796875 -3.6875 L 2.796875 -3.328125 L 1.703125 -3.328125 L 1.703125 0 Z M 1.25 0 "/></g></g></g><g fill="#ffffff" fill-opacity="1"><g transform="translate(147.603449, 65.652847)"><g><path d="M 0.390625 0 L 0.390625 -3.6875 L 2.671875 -3.6875 L 2.671875 -3.328125 L 0.828125 -3.328125 L 0.828125 -2.03125 L 2.515625 -2.03125 L 2.515625 -1.6875 L 0.828125 -1.6875 L 0.828125 -0.359375 L 2.671875 -0.359375 L 2.671875 0 Z M 0.390625 0 "/></g></g></g><g fill="#ffffff" fill-opacity="1"><g transform="translate(153.180074, 65.652847)"><g><path d="M 1.96875 0.0625 C 1.625 0.0625 1.320312 -0.015625 1.0625 -0.171875 C 0.800781 -0.335938 0.597656 -0.5625 0.453125 -0.84375 C 0.316406 -1.132812 0.25 -1.46875 0.25 -1.84375 C 0.25 -2.21875 0.320312 -2.546875 0.46875 -2.828125 C 0.613281 -3.117188 0.816406 -3.34375 1.078125 -3.5 C 1.347656 -3.664062 1.664062 -3.75 2.03125 -3.75 C 2.445312 -3.75 2.789062 -3.648438 3.0625 -3.453125 C 3.34375 -3.253906 3.523438 -2.976562 3.609375 -2.625 L 3.09375 -2.625 C 3.039062 -2.84375 2.921875 -3.015625 2.734375 -3.140625 C 2.554688 -3.273438 2.320312 -3.34375 2.03125 -3.34375 C 1.757812 -3.34375 1.523438 -3.28125 1.328125 -3.15625 C 1.128906 -3.039062 0.972656 -2.867188 0.859375 -2.640625 C 0.753906 -2.421875 0.703125 -2.15625 0.703125 -1.84375 C 0.703125 -1.53125 0.753906 -1.257812 0.859375 -1.03125 C 0.972656 -0.800781 1.125 -0.625 1.3125 -0.5 C 1.507812 -0.382812 1.734375 -0.328125 1.984375 -0.328125 C 2.378906 -0.328125 2.675781 -0.441406 2.875 -0.671875 C 3.082031 -0.898438 3.195312 -1.21875 3.21875 -1.625 L 2.15625 -1.625 L 2.15625 -1.96875 L 3.671875 -1.96875 L 3.671875 0 L 3.265625 0 L 3.234375 -0.609375 C 3.097656 -0.390625 2.929688 -0.222656 2.734375 -0.109375 C 2.546875 0.00390625 2.289062 0.0625 1.96875 0.0625 Z M 1.96875 0.0625 "/></g></g></g><g fill="#ffffff" fill-opacity="1"><g transform="translate(159.77257, 65.652847)"><g><path d="M 0.390625 0 L 0.390625 -3.6875 L 0.828125 -3.6875 L 0.828125 0 Z M 0.390625 0 "/></g></g></g><g fill="#ffffff" fill-opacity="1"><g transform="translate(163.601697, 65.652847)"><g><path d="M 0.390625 0 L 0.390625 -3.6875 L 2.671875 -3.6875 L 2.671875 -3.328125 L 0.828125 -3.328125 L 0.828125 -2.03125 L 2.515625 -2.03125 L 2.515625 -1.6875 L 0.828125 -1.6875 L 0.828125 -0.359375 L 2.671875 -0.359375 L 2.671875 0 Z M 0.390625 0 "/></g></g></g><g fill="#ffffff" fill-opacity="1"><g transform="translate(169.178322, 65.652847)"><g><path d="M 1.5625 0.0625 C 1.289062 0.0625 1.054688 0.015625 0.859375 -0.078125 C 0.660156 -0.179688 0.503906 -0.320312 0.390625 -0.5 C 0.285156 -0.675781 0.234375 -0.878906 0.234375 -1.109375 L 0.6875 -1.109375 C 0.6875 -0.960938 0.71875 -0.828125 0.78125 -0.703125 C 0.851562 -0.585938 0.953125 -0.492188 1.078125 -0.421875 C 1.210938 -0.347656 1.375 -0.3125 1.5625 -0.3125 C 1.8125 -0.3125 2.003906 -0.367188 2.140625 -0.484375 C 2.273438 -0.609375 2.34375 -0.757812 2.34375 -0.9375 C 2.34375 -1.082031 2.3125 -1.195312 2.25 -1.28125 C 2.1875 -1.375 2.101562 -1.445312 2 -1.5 C 1.894531 -1.5625 1.769531 -1.613281 1.625 -1.65625 C 1.488281 -1.695312 1.347656 -1.742188 1.203125 -1.796875 C 0.910156 -1.898438 0.695312 -2.023438 0.5625 -2.171875 C 0.425781 -2.316406 0.359375 -2.503906 0.359375 -2.734375 C 0.359375 -2.929688 0.40625 -3.101562 0.5 -3.25 C 0.59375 -3.40625 0.722656 -3.523438 0.890625 -3.609375 C 1.066406 -3.703125 1.273438 -3.75 1.515625 -3.75 C 1.753906 -3.75 1.957031 -3.703125 2.125 -3.609375 C 2.300781 -3.523438 2.4375 -3.40625 2.53125 -3.25 C 2.632812 -3.09375 2.6875 -2.921875 2.6875 -2.734375 L 2.21875 -2.734375 C 2.21875 -2.828125 2.191406 -2.925781 2.140625 -3.03125 C 2.085938 -3.132812 2.007812 -3.21875 1.90625 -3.28125 C 1.800781 -3.34375 1.664062 -3.375 1.5 -3.375 C 1.300781 -3.375 1.132812 -3.320312 1 -3.21875 C 0.875 -3.113281 0.8125 -2.96875 0.8125 -2.78125 C 0.8125 -2.625 0.851562 -2.503906 0.9375 -2.421875 C 1.03125 -2.335938 1.15625 -2.265625 1.3125 -2.203125 C 1.476562 -2.148438 1.671875 -2.085938 1.890625 -2.015625 C 2.054688 -1.953125 2.207031 -1.878906 2.34375 -1.796875 C 2.488281 -1.710938 2.601562 -1.601562 2.6875 -1.46875 C 2.769531 -1.34375 2.8125 -1.175781 2.8125 -0.96875 C 2.8125 -0.789062 2.765625 -0.625 2.671875 -0.46875 C 2.578125 -0.3125 2.4375 -0.179688 2.25 -0.078125 C 2.070312 0.015625 1.84375 0.0625 1.5625 0.0625 Z M 1.5625 0.0625 "/></g></g></g></svg>